<?xml version="1.0" encoding="UTF-8" standalone="no"?>
<svg
   version="1.1"
   id="Layer_1"
   x="0px"
   y="0px"
   viewBox="0 0 96.000003 96.000001"
   xml:space="preserve"
   sodipodi:docname="moon-icon-yell.svg"
   width="96"
   height="96"
   inkscape:version="1.2 (dc2aedaf03, 2022-05-15)"
   xmlns:inkscape="http://www.inkscape.org/namespaces/inkscape"
   xmlns:sodipodi="http://sodipodi.sourceforge.net/DTD/sodipodi-0.dtd"
   xmlns="http://www.w3.org/2000/svg"
   xmlns:svg="http://www.w3.org/2000/svg"><defs
     id="defs1116" /><sodipodi:namedview
     id="namedview1114"
     pagecolor="#ffffff"
     bordercolor="#666666"
     borderopacity="1.0"
     inkscape:showpageshadow="2"
     inkscape:pageopacity="0"
     inkscape:pagecheckerboard="true"
     inkscape:deskcolor="#d1d1d1"
     showgrid="false"
     inkscape:zoom="2.9579299"
     inkscape:cx="53.753809"
     inkscape:cy="62.036629"
     inkscape:window-width="1500"
     inkscape:window-height="930"
     inkscape:window-x="485"
     inkscape:window-y="1081"
     inkscape:window-maximized="1"
     inkscape:current-layer="Layer_1" /><g
     id="g1111"
     style="fill:#fcff88;fill-opacity:1"
     transform="matrix(0.68087108,0.70752973,-0.70753043,0.68087175,52.461839,-21.244572)"><path
       id="path1109"
       style="fill:#fcff88;fill-opacity:1;stroke-width:0.786822"
       d="M 48.039204,1.9977168 C 37.813556,2.1571427 27.661548,5.7422574 19.673798,12.14324 11.024201,18.98669 4.944366,28.982675 2.8574684,39.814075 c -0.4473997,2.281061 -0.7137729,4.596867 -0.8181451,6.918767 -0.00917,0.30398 -0.035165,0.91023 -0.036945,1.333289 -0.1688164,11.010665 3.6662274,22.049717 10.7295597,30.511087 7.138622,8.668483 17.492333,14.614637 28.586787,16.371343 8.261103,1.353105 16.870632,0.383661 24.656021,-2.67687 0.236611,-0.103012 0.772154,-0.309709 1.124821,-0.4617 2.382683,-1.012081 4.67977,-2.223732 6.861728,-3.616863 0.240131,-0.157922 0.750092,-0.48487 1.090242,-0.721059 9.573779,-6.464622 16.565131,-16.610444 19.215754,-27.852521 1.42875,-6.000744 1.678165,-12.303317 0.630841,-18.382164 -0.283759,-0.241391 -0.328466,0.314256 -0.364471,0.472301 C 92.361458,50.761149 86.265729,58.78937 78.10135,63.270334 70.031517,67.787417 60.07251,68.767675 51.285759,65.868712 44.476858,63.650651 38.419226,59.239427 34.108094,53.534061 31.181269,49.648065 29.210341,45.035931 28.546503,40.209621 26.923115,32.144185 28.43103,23.516037 32.656124,16.460078 36.435631,10.056219 42.392886,4.9798336 49.316252,2.2666501 49.561217,2.059561 49.165747,1.886341 48.98493,1.9927976 c -0.315242,0.00164 -0.630485,0.00328 -0.945726,0.00492 z" /></g></svg>
