<?xml version="1.0" encoding="UTF-8" standalone="no"?>
<!-- Created with Inkscape (http://www.inkscape.org/) -->

<svg
   id="svg3055"
   version="1.1"
   inkscape:version="1.2 (dc2aedaf03, 2022-05-15)"
   width="876"
   height="873"
   sodipodi:docname="sun-icon-yell.svg"
   xmlns:inkscape="http://www.inkscape.org/namespaces/inkscape"
   xmlns:sodipodi="http://sodipodi.sourceforge.net/DTD/sodipodi-0.dtd"
   xmlns="http://www.w3.org/2000/svg"
   xmlns:svg="http://www.w3.org/2000/svg"
   xmlns:rdf="http://www.w3.org/1999/02/22-rdf-syntax-ns#"
   xmlns:cc="http://creativecommons.org/ns#"
   xmlns:dc="http://purl.org/dc/elements/1.1/">
  <metadata
     id="metadata3061">
    <rdf:RDF>
      <cc:Work
         rdf:about="">
        <dc:format>image/svg+xml</dc:format>
        <dc:type
           rdf:resource="http://purl.org/dc/dcmitype/StillImage" />
      </cc:Work>
    </rdf:RDF>
  </metadata>
  <defs
     id="defs3059" />
  <sodipodi:namedview
     pagecolor="#ffffff"
     bordercolor="#666666"
     borderopacity="1"
     objecttolerance="10"
     gridtolerance="10"
     guidetolerance="10"
     inkscape:pageopacity="0"
     inkscape:pageshadow="2"
     inkscape:window-width="1350"
     inkscape:window-height="1032"
     id="namedview3057"
     showgrid="false"
     inkscape:zoom="0.27033219"
     inkscape:cx="421.70339"
     inkscape:cy="445.74788"
     inkscape:window-x="557"
     inkscape:window-y="8"
     inkscape:window-maximized="0"
     inkscape:current-layer="svg3055"
     inkscape:showpageshadow="2"
     inkscape:pagecheckerboard="true"
     inkscape:deskcolor="#d1d1d1" />
  <g
     id="g3522"
     style="fill:#fcff88;fill-opacity:1">
    <path
       style="fill:#ffe100;fill-opacity:1"
       d="m 266.65051,873.52806 c -4.61212,-1.72057 -9.9607,-5.71571 -12.55993,-9.3817 -4.94825,-6.97908 -8.11038,-23.47036 -6.43686,-33.56976 1.33293,-8.04397 42.86854,-112.81601 47.248,-119.18134 3.87369,-5.63021 11.0133,-11.68513 18.47547,-15.66857 4.78224,-2.55285 7.4798,-3.27651 13.51633,-3.62596 9.18558,-0.53174 15.1685,1.82518 20.52836,8.08697 6.70418,7.83232 10.65555,24.24957 8.61909,35.81074 -0.9754,5.53748 -39.19957,103.97186 -44.40494,114.35104 -2.99183,5.96551 -12.3983,15.25502 -20.05184,19.8025 -5.94742,3.53375 -7.7357,4.09751 -14,4.41351 -4.55296,0.22967 -8.555,-0.15006 -10.93368,-1.03743 z m 345.09621,-2.96644 c -10.26809,-3.83981 -22.57127,-14.02628 -27.07741,-22.41886 -1.40232,-2.61178 -12.49354,-27.9896 -24.64715,-56.39515 -17.97218,-42.00479 -22.28555,-52.9726 -23.10494,-58.75 -2.66269,-18.77444 5.71871,-37.89018 18.45633,-42.09397 6.32376,-2.08703 16.97869,-0.85186 24.18784,2.80398 7.75178,3.93101 17.15074,12.56386 20.53042,18.85698 1.4265,2.65621 12.60031,28.21697 24.83069,56.80169 24.64434,57.59852 25.26601,59.56257 23.15362,73.14999 -2.86707,18.44168 -11.62206,28.21891 -25.99841,29.03399 -4.10697,0.23285 -8.08171,-0.14752 -10.33099,-0.98865 z M 427.40254,689.30702 c -38.40437,-3.81388 -63.78724,-10.91341 -94.87788,-26.53713 -24.76589,-12.4454 -45.16708,-27.3398 -66.19798,-48.32949 -20.06229,-20.02299 -32.80985,-36.7606 -45.29483,-59.47233 -20.4691,-37.23585 -30.12931,-74.61238 -30.12931,-116.574 0,-30.92036 4.8493,-57.48082 15.55885,-85.21852 26.62364,-68.95516 83.03344,-124.94707 151.8448,-150.71994 33.18626,-12.4297 70.69551,-17.68412 103.81791,-14.54315 61.94453,5.87415 116.30265,32.46223 160.77844,78.64124 34.11704,35.42357 56.64625,77.52703 66.53347,124.34037 4.52178,21.40936 5.81405,53.78876 3.03472,76.03801 -5.58208,44.68589 -22.95579,85.80103 -52.38169,123.96199 -3.60489,4.675 -13.10908,15.05473 -21.12042,23.06608 -8.01135,8.01134 -18.39108,17.51553 -23.06608,21.12042 -37.36012,28.80837 -77.47649,46.09404 -121.5,52.35294 -10.08139,1.43329 -39.58878,2.60951 -47,1.87351 z M 33.402614,641.48834 c -10.1951,-2.5195 -17.4677,-7.62351 -21.1132,-14.81754 -2.2441,-4.42862 -2.5378003,-6.09728 -2.2329,-12.68799 0.4882,-10.5562 3.942,-17.35944 13.7663,-27.11714 l 7.5798,-7.5284 54.76688,-23.27989 c 38.237366,-16.25364 56.648176,-23.58618 60.999996,-24.2947 12.23303,-1.99167 27.65758,1.67211 35.27749,8.37942 6.98313,6.1468 8.72654,10.39673 8.26644,20.15126 -0.50715,10.75195 -3.87753,17.63339 -13.31088,27.17739 l -7,7.08211 -53.5,22.83885 c -29.424996,12.56137 -55.735526,23.43814 -58.467926,24.17061 -6.077,1.62908 -18.2866,1.593 -25.032,-0.074 z m 800.999926,-6.33101 c -3.57791,-0.52128 -110.65184,-43.6254 -115.05275,-46.31611 -5.47671,-3.34846 -15.40549,-14.61624 -18.18889,-20.64184 -3.4479,-7.46415 -4.21717,-17.50617 -1.8216,-23.7789 2.0043,-5.24817 8.8997,-11.88441 15.11816,-14.54995 6.53929,-2.80307 16.75255,-4.3194 24.86197,-3.69118 6.29316,0.48752 13.21705,3.02586 62.08311,22.76003 30.25,12.21623 56.86926,23.49544 59.1539,25.06493 5.83216,4.00652 13.54184,12.94655 16.9161,19.61565 7.08284,13.999 2.36027,30.67758 -10.55158,37.26471 -7.34239,3.74581 -22.48147,5.73496 -32.51842,4.27266 z M 140.95563,350.16253 C 135.95847,349.2248 29.265714,305.552 25.290814,302.81716 c -5.5035,-3.78652 -12.5944,-11.79219 -16.5165003,-18.64722 -4.3528997,-7.60813 -5.1409997,-17.61802 -1.9543,-24.82209 2.7073,-6.12042 4.3108003,-7.92615 10.6926003,-12.04118 6.7698,-4.36523 18.9675,-6.91084 29.0361,-6.05973 6.4401,0.54438 13.4104,3.09715 62.054406,22.72662 30.13968,12.16234 56.221,22.98137 57.95849,24.04229 5.16805,3.15564 14.90114,14.27998 17.95463,20.52108 3.61443,7.38764 4.42857,17.33948 1.94954,23.83073 -1.99405,5.22132 -8.8917,11.88098 -15.03142,14.51277 -7.94364,3.40504 -21.84584,4.9021 -30.47873,3.2821 z m 581.7103,-5.30127 c -12.20185,-2.05459 -21.69752,-7.91533 -25.6626,-15.83898 -5.91075,-11.81181 -1.69289,-26.52666 11.38023,-39.70215 l 7.01898,-7.07393 53.5,-22.84597 c 29.425,-12.56527 55.75,-23.47455 58.5,-24.24283 7.13266,-1.99267 22.33324,-1.1494 29.64482,1.64459 8.55307,3.26841 13.24799,7.15168 16.37587,13.54485 2.42363,4.95371 2.68468,6.43031 2.26699,12.82281 -0.67933,10.39673 -4.24685,17.36157 -13.705,26.75611 l -7.58268,7.5317 -54.80942,23.2804 c -60.92565,25.87828 -62.87498,26.48957 -76.92719,24.1234 z M 311.90254,185.95694 c -9.76085,-2.98767 -22.65884,-13.29752 -27.18927,-21.7334 -1.4265,-2.65621 -12.60031,-28.21697 -24.83069,-56.80169 -24.65803,-57.630509 -25.24996,-59.503079 -23.16536,-73.283199 4.77749,-31.58131 31.85947,-38.7844 55.748,-14.82748 l 7.06268,7.0829 23.75474,55.488449 c 25.85949,60.40491 26.13971,61.27165 24.51691,75.83314 -1.42207,12.76044 -7.73228,23.25828 -16.39701,27.27856 -4.17415,1.93673 -14.63122,2.453 -19.5,0.96272 z m 233.23,-3.11587 c -8.37237,-4.26617 -14.1776,-13.98528 -16.3941,-27.447 -2.04044,-12.39235 -1.31797,-14.80977 21.81662,-73 11.80777,-29.699999 22.53197,-55.799999 23.83155,-57.999999 3.46661,-5.86849 12.09752,-13.85099 19.51593,-18.04976 14.70418,-8.32248 31.61718,-4.18036 38.38568,9.40094 4.35756,8.74364 6.43681,22.27634 4.7893,31.171 -1.66357,8.98136 -43.58082,113.400459 -47.86613,119.238219 -4.21817,5.74629 -11.54873,11.80248 -18.74966,15.49015 -7.25148,3.71355 -19.27479,4.28149 -25.32919,1.19645 z"
       id="path3524"
       inkscape:connector-curvature="0"
       inkscape:transform-center-x="832.30932"
       inkscape:transform-center-y="-229.34746" />
  </g>
</svg>
